{
  "accessors": [
    {
      "bufferView": 2,
      "componentType": 5126,
      "count": 686,
      "max": [
        2.185652732849121,
        5.867335319519043,
        1.1823663711547852
      ],
      "min": [
        -2.1987786293029785,
        -0.45133349299430847,
        -1.1298625469207764
      ],
      "type": "VEC3"
    },
    {
      "bufferView": 2,
      "byteOffset": 8232,
      "componentType": 5126,
      "count": 686,
      "max": [
        0.9721944332122803,
        0.9721953272819519,
        0.9721949100494385
      ],
      "min": [
        -0.972194492816925,
        -0.9721949100494385,
        -0.9721949100494385
      ],
      "type": "VEC3"
    },
    {
      "bufferView": 1,
      "componentType": 5126,
      "count": 686,
      "max": [
        0.999015748500824,
        0.878511369228363
      ],
      "min": [
        0.10942533612251282,
        0.015092471614480019
      ],
      "type": "VEC2"
    },
    {
      "bufferView": 0,
      "componentType": 5125,
      "count": 2268,
      "type": "SCALAR"
    },
    {
      "bufferView": 2,
      "byteOffset": 16464,
      "componentType": 5126,
      "count": 98,
      "max": [
        2.185652732849121,
        0.45133349299430847,
        1.1823663711547852
      ],
      "min": [
        -2.1987786293029785,
        -0.45133349299430847,
        -1.1298625469207764
      ],
      "type": "VEC3"
    },
    {
      "bufferView": 2,
      "byteOffset": 17640,
      "componentType": 5126,
      "count": 98,
      "max": [
        0.9721943736076355,
        0.9721945524215698,
        0.9721946716308594
      ],
      "min": [
        -0.9721944332122803,
        -0.972194492816925,
        -0.9721946716308594
      ],
      "type": "VEC3"
    },
    {
      "bufferView": 1,
      "byteOffset": 5488,
      "componentType": 5126,
      "count": 98,
      "max": [
        0.999015748500824,
        0.878511369228363
      ],
      "min": [
        0.10942533612251282,
        0.015092471614480019
      ],
      "type": "VEC2"
    },
    {
      "bufferView": 0,
      "byteOffset": 9072,
      "componentType": 5125,
      "count": 324,
      "type": "SCALAR"
    },
    {
      "bufferView": 2,
      "byteOffset": 18816,
      "componentType": 5126,
      "count": 64,
      "max": [
        1.0,
        1.0,
        0.7555282115936279
      ],
      "min": [
        -1.0,
        -1.1187610626220703,
        0.0
      ],
      "type": "VEC3"
    },
    {
      "bufferView": 2,
      "byteOffset": 19584,
      "componentType": 5126,
      "count": 64,
      "max": [
        0.9836510419845581,
        0.9836510419845581,
        0.0
      ],
      "min": [
        -0.9836510419845581,
        -0.9836510419845581,
        -0.9721947312355042
      ],
      "type": "VEC3"
    },
    {
      "bufferView": 1,
      "byteOffset": 6272,
      "componentType": 5126,
      "count": 64,
      "max": [
        2.534156322479248,
        2.972775936126709
      ],
      "min": [
        -1.68170166015625,
        -1.972775936126709
      ],
      "type": "VEC2"
    },
    {
      "bufferView": 0,
      "byteOffset": 10368,
      "componentType": 5125,
      "count": 198,
      "type": "SCALAR"
    }
  ],
  "asset": {
    "extras": {
      "author": "multikunst (https://sketchfab.com/multikunst)",
      "license": "CC-BY-4.0 (http://creativecommons.org/licenses/by/4.0/)",
      "source": "https://sketchfab.com/3d-models/multi--oreo--pack-22b2430c2ec1413c84c44c1c051be066",
      "title": "Multi_ Oreo_ Pack"
    },
    "generator": "Sketchfab-15.27.0",
    "version": "2.0"
  },
  "bufferViews": [
    {
      "buffer": 0,
      "byteLength": 11160,
      "name": "floatBufferViews",
      "target": 34963
    },
    {
      "buffer": 0,
      "byteLength": 6784,
      "byteOffset": 11160,
      "byteStride": 8,
      "name": "floatBufferViews",
      "target": 34962
    },
    {
      "buffer": 0,
      "byteLength": 20352,
      "byteOffset": 17944,
      "byteStride": 12,
      "name": "floatBufferViews",
      "target": 34962
    }
  ],
  "buffers": [
    {
      "byteLength": 38296,
      "uri": "scene.bin"
    }
  ],
  "images": [
    {
      "uri": "textures/Material.001_baseColor.jpeg"
    },
    {
      "uri": "textures/Cardboard_05_baseColor.jpeg"
    }
  ],
  "materials": [
    {
      "doubleSided": true,
      "name": "Material.001",
      "pbrMetallicRoughness": {
        "baseColorTexture": {
          "index": 0
        },
        "metallicFactor": 0.0,
        "roughnessFactor": 0.8211145618000169
      }
    },
    {
      "doubleSided": true,
      "name": "Cardboard_05",
      "pbrMetallicRoughness": {
        "baseColorTexture": {
          "index": 1
        },
        "metallicFactor": 0.0
      }
    }
  ],
  "meshes": [
    {
      "name": "Cube_Material.001_0",
      "primitives": [
        {
          "attributes": {
            "NORMAL": 1,
            "POSITION": 0,
            "TEXCOORD_0": 2
          },
          "indices": 3,
          "material": 0,
          "mode": 4
        }
      ]
    },
    {
      "name": "Cube.001_Material.001_0",
      "primitives": [
        {
          "attributes": {
            "NORMAL": 5,
            "POSITION": 4,
            "TEXCOORD_0": 6
          },
          "indices": 7,
          "material": 0,
          "mode": 4
        }
      ]
    },
    {
      "name": "Plane_Cardboard_05_0",
      "primitives": [
        {
          "attributes": {
            "NORMAL": 9,
            "POSITION": 8,
            "TEXCOORD_0": 10
          },
          "indices": 11,
          "material": 1,
          "mode": 4
        }
      ]
    }
  ],
  "nodes": [
    {
      "children": [
        1
      ],
      "matrix": [
        1.0,
        0.0,
        0.0,
        0.0,
        0.0,
        2.220446049250313e-16,
        -1.0,
        0.0,
        0.0,
        1.0,
        2.220446049250313e-16,
        0.0,
        0.0,
        0.0,
        0.0,
        1.0
      ],
      "name": "Sketchfab_model"
    },
    {
      "children": [
        2
      ],
      "matrix": [
        0.009999999776482582,
        0.0,
        0.0,
        0.0,
        0.0,
        0.0,
        0.009999999776482582,
        0.0,
        0.0,
        -0.009999999776482582,
        0.0,
        0.0,
        0.0,
        0.0,
        0.0,
        1.0
      ],
      "name": "b98543122bec44b8be6b5c50c28eabcc.fbx"
    },
    {
      "children": [
        3,
        5,
        7
      ],
      "name": "RootNode"
    },
    {
      "children": [
        4
      ],
      "matrix": [
        100.0,
        0.0,
        0.0,
        0.0,
        0.0,
        -1.023905544835489e-05,
        -62.846874237059716,
        0.0,
        0.0,
        99.99999999999868,
        -1.629206793918314e-05,
        0.0,
        0.0,
        112.87854766845703,
        0.0,
        1.0
      ],
      "name": "Cube"
    },
    {
      "mesh": 0,
      "name": "Cube_Material.001_0"
    },
    {
      "children": [
        6
      ],
      "matrix": [
        86.62535557105817,
        -1.277911826406271e-14,
        -49.960446818547325,
        0.0,
        2.7449512740097176e-06,
        -62.84687423706031,
        4.759412617005943e-06,
        0.0,
        -49.96044681854713,
        -8.742277306103362e-06,
        -86.62535557105784,
        0.0,
        159.06951904296875,
        27.95833969116211,
        274.3822326660156,
        1.0
      ],
      "name": "Cube.001"
    },
    {
      "mesh": 1,
      "name": "Cube.001_Material.001_0"
    },
    {
      "children": [
        8
      ],
      "matrix": [
        220.01583862304688,
        0.0,
        0.0,
        0.0,
        0.0,
        -3.584512990543034e-05,
        -220.01583862304398,
        0.0,
        0.0,
        164.05493164062284,
        -2.6727940920471085e-05,
        0.0,
        0.0,
        -1.52420973777771,
        -152.38609313964844,
        1.0
      ],
      "name": "Plane"
    },
    {
      "mesh": 2,
      "name": "Plane_Cardboard_05_0"
    }
  ],
  "samplers": [
    {
      "magFilter": 9729,
      "minFilter": 9987,
      "wrapS": 10497,
      "wrapT": 10497
    }
  ],
  "scene": 0,
  "scenes": [
    {
      "name": "Sketchfab_Scene",
      "nodes": [
        0
      ]
    }
  ],
  "textures": [
    {
      "sampler": 0,
      "source": 0
    },
    {
      "sampler": 0,
      "source": 1
    }
  ]
}
