{
  "accessors": [
    {
      "bufferView": 2,
      "componentType": 5126,
      "count": 4923,
      "max": [
        32.63985824584961,
        32.94280242919922,
        20.42237091064453
      ],
      "min": [
        -32.63985824584961,
        0.5074825286865234,
        -20.84365463256836
      ],
      "type": "VEC3"
    },
    {
      "bufferView": 2,
      "byteOffset": 59076,
      "componentType": 5126,
      "count": 4923,
      "max": [
        1.0,
        1.0,
        1.0
      ],
      "min": [
        -1.0,
        -1.0,
        -1.0
      ],
      "type": "VEC3"
    },
    {
      "bufferView": 3,
      "componentType": 5126,
      "count": 4923,
      "max": [
        1.0,
        1.0,
        1.0,
        1.0
      ],
      "min": [
        -1.0,
        -1.0,
        -1.0,
        -1.0
      ],
      "type": "VEC4"
    },
    {
      "bufferView": 1,
      "componentType": 5126,
      "count": 4923,
      "max": [
        0.9977422952651978,
        0.9971643090248108
      ],
      "min": [
        0.0007076263427734375,
        0.0038600172847509384
      ],
      "type": "VEC2"
    },
    {
      "bufferView": 1,
      "byteOffset": 39384,
      "componentType": 5126,
      "count": 4923,
      "max": [
        0.9977422952651978,
        0.9971643090248108
      ],
      "min": [
        0.0007076263427734375,
        0.0038600172847509384
      ],
      "type": "VEC2"
    },
    {
      "bufferView": 1,
      "byteOffset": 78768,
      "componentType": 5126,
      "count": 4923,
      "max": [
        0.9977422952651978,
        0.9971643090248108
      ],
      "min": [
        0.0007076263427734375,
        0.0038600172847509384
      ],
      "type": "VEC2"
    },
    {
      "bufferView": 1,
      "byteOffset": 118152,
      "componentType": 5126,
      "count": 4923,
      "max": [
        0.9977422952651978,
        0.9971643090248108
      ],
      "min": [
        0.0007076263427734375,
        0.0038600172847509384
      ],
      "type": "VEC2"
    },
    {
      "bufferView": 0,
      "componentType": 5125,
      "count": 12762,
      "type": "SCALAR"
    },
    {
      "bufferView": 2,
      "byteOffset": 118152,
      "componentType": 5126,
      "count": 1131,
      "max": [
        32.4705810546875,
        43.16284942626953,
        20.0
      ],
      "min": [
        -32.6708984375,
        32.481361389160156,
        -20.768875122070313
      ],
      "type": "VEC3"
    },
    {
      "bufferView": 2,
      "byteOffset": 131724,
      "componentType": 5126,
      "count": 1131,
      "max": [
        1.0,
        1.0,
        1.0
      ],
      "min": [
        -1.0,
        -1.0,
        -1.0
      ],
      "type": "VEC3"
    },
    {
      "bufferView": 3,
      "byteOffset": 78768,
      "componentType": 5126,
      "count": 1131,
      "max": [
        1.0,
        1.0,
        1.0,
        1.0
      ],
      "min": [
        -1.0,
        -1.0,
        -1.0,
        1.0
      ],
      "type": "VEC4"
    },
    {
      "bufferView": 1,
      "byteOffset": 157536,
      "componentType": 5126,
      "count": 1131,
      "max": [
        0.9975757598876953,
        0.9980988502502441
      ],
      "min": [
        0.0034291744232177734,
        0.003190860152244568
      ],
      "type": "VEC2"
    },
    {
      "bufferView": 1,
      "byteOffset": 166584,
      "componentType": 5126,
      "count": 1131,
      "max": [
        0.9975757598876953,
        0.9980988502502441
      ],
      "min": [
        0.0034291744232177734,
        0.003190860152244568
      ],
      "type": "VEC2"
    },
    {
      "bufferView": 1,
      "byteOffset": 175632,
      "componentType": 5126,
      "count": 1131,
      "max": [
        0.9975757598876953,
        0.9980988502502441
      ],
      "min": [
        0.0034291744232177734,
        0.003190860152244568
      ],
      "type": "VEC2"
    },
    {
      "bufferView": 1,
      "byteOffset": 184680,
      "componentType": 5126,
      "count": 1131,
      "max": [
        0.9975757598876953,
        0.9980988502502441
      ],
      "min": [
        0.0034291744232177734,
        0.003190860152244568
      ],
      "type": "VEC2"
    },
    {
      "bufferView": 0,
      "byteOffset": 51048,
      "componentType": 5125,
      "count": 3120,
      "type": "SCALAR"
    },
    {
      "bufferView": 2,
      "byteOffset": 145296,
      "componentType": 5126,
      "count": 910,
      "max": [
        -25.497791290283203,
        44.16284942626953,
        6.65222692489624
      ],
      "min": [
        -33.87090301513672,
        24.666770935058594,
        -6.65222692489624
      ],
      "type": "VEC3"
    },
    {
      "bufferView": 2,
      "byteOffset": 156216,
      "componentType": 5126,
      "count": 910,
      "max": [
        1.0,
        1.0,
        1.0
      ],
      "min": [
        -1.0,
        -1.0,
        -1.0
      ],
      "type": "VEC3"
    },
    {
      "bufferView": 3,
      "byteOffset": 96864,
      "componentType": 5126,
      "count": 910,
      "max": [
        1.0,
        1.0,
        1.0,
        1.0
      ],
      "min": [
        -1.0,
        -1.0,
        -0.9999991059303284,
        -1.0
      ],
      "type": "VEC4"
    },
    {
      "bufferView": 1,
      "byteOffset": 193728,
      "componentType": 5126,
      "count": 910,
      "max": [
        0.9968860149383545,
        0.9992657899856567
      ],
      "min": [
        0.028836242854595184,
        0.17240692675113678
      ],
      "type": "VEC2"
    },
    {
      "bufferView": 1,
      "byteOffset": 201008,
      "componentType": 5126,
      "count": 910,
      "max": [
        0.9968860149383545,
        0.9992657899856567
      ],
      "min": [
        0.028836242854595184,
        0.17240692675113678
      ],
      "type": "VEC2"
    },
    {
      "bufferView": 1,
      "byteOffset": 208288,
      "componentType": 5126,
      "count": 910,
      "max": [
        0.9968860149383545,
        0.9992657899856567
      ],
      "min": [
        0.028836242854595184,
        0.17240692675113678
      ],
      "type": "VEC2"
    },
    {
      "bufferView": 1,
      "byteOffset": 215568,
      "componentType": 5126,
      "count": 910,
      "max": [
        0.9968860149383545,
        0.9992657899856567
      ],
      "min": [
        0.028836242854595184,
        0.17240692675113678
      ],
      "type": "VEC2"
    },
    {
      "bufferView": 0,
      "byteOffset": 63528,
      "componentType": 5125,
      "count": 2352,
      "type": "SCALAR"
    },
    {
      "bufferView": 2,
      "byteOffset": 167136,
      "componentType": 5126,
      "count": 910,
      "max": [
        33.84923553466797,
        44.16284942626953,
        6.65222692489624
      ],
      "min": [
        25.47612762451172,
        24.666770935058594,
        -6.65222692489624
      ],
      "type": "VEC3"
    },
    {
      "bufferView": 2,
      "byteOffset": 178056,
      "componentType": 5126,
      "count": 910,
      "max": [
        1.0,
        1.0,
        1.0
      ],
      "min": [
        -1.0,
        -1.0,
        -1.0
      ],
      "type": "VEC3"
    },
    {
      "bufferView": 3,
      "byteOffset": 111424,
      "componentType": 5126,
      "count": 910,
      "max": [
        1.0,
        1.0,
        1.0,
        1.0
      ],
      "min": [
        -1.0,
        -1.0,
        -0.9999991059303284,
        -1.0
      ],
      "type": "VEC4"
    },
    {
      "bufferView": 1,
      "byteOffset": 222848,
      "componentType": 5126,
      "count": 910,
      "max": [
        0.9968860149383545,
        0.9992657899856567
      ],
      "min": [
        0.028836242854595184,
        0.17240692675113678
      ],
      "type": "VEC2"
    },
    {
      "bufferView": 1,
      "byteOffset": 230128,
      "componentType": 5126,
      "count": 910,
      "max": [
        0.9968860149383545,
        0.9992657899856567
      ],
      "min": [
        0.028836242854595184,
        0.17240692675113678
      ],
      "type": "VEC2"
    },
    {
      "bufferView": 1,
      "byteOffset": 237408,
      "componentType": 5126,
      "count": 910,
      "max": [
        0.9968860149383545,
        0.9992657899856567
      ],
      "min": [
        0.028836242854595184,
        0.17240692675113678
      ],
      "type": "VEC2"
    },
    {
      "bufferView": 1,
      "byteOffset": 244688,
      "componentType": 5126,
      "count": 910,
      "max": [
        0.9968860149383545,
        0.9992657899856567
      ],
      "min": [
        0.028836242854595184,
        0.17240692675113678
      ],
      "type": "VEC2"
    },
    {
      "bufferView": 0,
      "byteOffset": 72936,
      "componentType": 5125,
      "count": 2352,
      "type": "SCALAR"
    }
  ],
  "asset": {
    "extras": {
      "author": "kraffing Studio (https://sketchfab.com/kraffing)",
      "license": "CC-BY-4.0 (http://creativecommons.org/licenses/by/4.0/)",
      "source": "https://sketchfab.com/3d-models/futuristic-box-93723b8fec6a47259683944ac6fb5378",
      "title": "Futuristic Box"
    },
    "generator": "Sketchfab-15.27.0",
    "version": "2.0"
  },
  "bufferViews": [
    {
      "buffer": 0,
      "byteLength": 82344,
      "name": "floatBufferViews",
      "target": 34963
    },
    {
      "buffer": 0,
      "byteLength": 251968,
      "byteOffset": 82344,
      "byteStride": 8,
      "name": "floatBufferViews",
      "target": 34962
    },
    {
      "buffer": 0,
      "byteLength": 188976,
      "byteOffset": 334312,
      "byteStride": 12,
      "name": "floatBufferViews",
      "target": 34962
    },
    {
      "buffer": 0,
      "byteLength": 125984,
      "byteOffset": 523288,
      "byteStride": 16,
      "name": "floatBufferViews",
      "target": 34962
    }
  ],
  "buffers": [
    {
      "byteLength": 649272,
      "uri": "scene.bin"
    }
  ],
  "images": [
    {
      "uri": "textures/TX_Futurist_Chest_baseColor.png"
    },
    {
      "uri": "textures/TX_Futurist_Chest_metallicRoughness.png"
    },
    {
      "uri": "textures/TX_Futurist_Chest_emissive.png"
    },
    {
      "uri": "textures/TX_Futurist_Chest_normal.png"
    }
  ],
  "materials": [
    {
      "doubleSided": true,
      "emissiveFactor": [
        1.0,
        1.0,
        1.0
      ],
      "emissiveTexture": {
        "index": 2
      },
      "name": "TX_Futurist_Chest",
      "normalTexture": {
        "index": 3
      },
      "occlusionTexture": {
        "index": 1
      },
      "pbrMetallicRoughness": {
        "baseColorTexture": {
          "index": 0
        },
        "metallicRoughnessTexture": {
          "index": 1
        }
      }
    }
  ],
  "meshes": [
    {
      "name": "Futurist_Chest_1_TX_Futurist_Chest_0",
      "primitives": [
        {
          "attributes": {
            "NORMAL": 1,
            "POSITION": 0,
            "TANGENT": 2,
            "TEXCOORD_0": 3,
            "TEXCOORD_1": 4,
            "TEXCOORD_2": 5,
            "TEXCOORD_3": 6
          },
          "indices": 7,
          "material": 0,
          "mode": 4
        }
      ]
    },
    {
      "name": "Asset_FC_1_TX_Futurist_Chest_0",
      "primitives": [
        {
          "attributes": {
            "NORMAL": 9,
            "POSITION": 8,
            "TANGENT": 10,
            "TEXCOORD_0": 11,
            "TEXCOORD_1": 12,
            "TEXCOORD_2": 13,
            "TEXCOORD_3": 14
          },
          "indices": 15,
          "material": 0,
          "mode": 4
        }
      ]
    },
    {
      "name": "Asset_FC_2_TX_Futurist_Chest_0",
      "primitives": [
        {
          "attributes": {
            "NORMAL": 17,
            "POSITION": 16,
            "TANGENT": 18,
            "TEXCOORD_0": 19,
            "TEXCOORD_1": 20,
            "TEXCOORD_2": 21,
            "TEXCOORD_3": 22
          },
          "indices": 23,
          "material": 0,
          "mode": 4
        }
      ]
    },
    {
      "name": "Asset_FC_3_TX_Futurist_Chest_0",
      "primitives": [
        {
          "attributes": {
            "NORMAL": 25,
            "POSITION": 24,
            "TANGENT": 26,
            "TEXCOORD_0": 27,
            "TEXCOORD_1": 28,
            "TEXCOORD_2": 29,
            "TEXCOORD_3": 30
          },
          "indices": 31,
          "material": 0,
          "mode": 4
        }
      ]
    }
  ],
  "nodes": [
    {
      "children": [
        1
      ],
      "matrix": [
        1.0,
        0.0,
        0.0,
        0.0,
        0.0,
        2.220446049250313e-16,
        -1.0,
        0.0,
        0.0,
        1.0,
        2.220446049250313e-16,
        0.0,
        0.0,
        0.0,
        0.0,
        1.0
      ],
      "name": "Sketchfab_model"
    },
    {
      "children": [
        2
      ],
      "matrix": [
        1.0,
        0.0,
        0.0,
        0.0,
        0.0,
        0.0,
        1.0,
        0.0,
        0.0,
        -1.0,
        0.0,
        0.0,
        0.0,
        0.0,
        0.0,
        1.0
      ],
      "name": "Futuristic_Chest_1.fbx"
    },
    {
      "children": [
        3
      ],
      "name": "RootNode"
    },
    {
      "children": [
        4,
        5,
        7,
        9
      ],
      "matrix": [
        0.009999999776482582,
        0.0,
        0.0,
        0.0,
        0.0,
        0.009999999776482582,
        0.0,
        0.0,
        0.0,
        0.0,
        0.009999999776482582,
        0.0,
        0.0,
        -3.552713678800501e-15,
        0.0,
        1.0
      ],
      "name": "Futurist_Chest_1"
    },
    {
      "mesh": 0,
      "name": "Futurist_Chest_1_TX_Futurist_Chest_0"
    },
    {
      "children": [
        6
      ],
      "name": "Asset_FC_1"
    },
    {
      "mesh": 1,
      "name": "Asset_FC_1_TX_Futurist_Chest_0"
    },
    {
      "children": [
        8
      ],
      "name": "Asset_FC_2"
    },
    {
      "mesh": 2,
      "name": "Asset_FC_2_TX_Futurist_Chest_0"
    },
    {
      "children": [
        10
      ],
      "name": "Asset_FC_3"
    },
    {
      "mesh": 3,
      "name": "Asset_FC_3_TX_Futurist_Chest_0"
    }
  ],
  "samplers": [
    {
      "magFilter": 9729,
      "minFilter": 9987,
      "wrapS": 10497,
      "wrapT": 10497
    }
  ],
  "scene": 0,
  "scenes": [
    {
      "name": "Sketchfab_Scene",
      "nodes": [
        0
      ]
    }
  ],
  "textures": [
    {
      "sampler": 0,
      "source": 0
    },
    {
      "sampler": 0,
      "source": 1
    },
    {
      "sampler": 0,
      "source": 2
    },
    {
      "sampler": 0,
      "source": 3
    }
  ]
}
