{
  "accessors": [
    {
      "bufferView": 2,
      "componentType": 5126,
      "count": 65532,
      "max": [
        25.86278533935547,
        30.98798179626465,
        60.32909393310547
      ],
      "min": [
        -41.02066421508789,
        -50.58584976196289,
        -55.77582931518555
      ],
      "type": "VEC3"
    },
    {
      "bufferView": 2,
      "byteOffset": 786384,
      "componentType": 5126,
      "count": 65532,
      "max": [
        1.0,
        1.0,
        1.0
      ],
      "min": [
        -1.0,
        -1.0,
        -1.0
      ],
      "type": "VEC3"
    },
    {
      "bufferView": 1,
      "componentType": 5126,
      "count": 65532,
      "max": [
        0.996707022190094,
        0.9992190003395081
      ],
      "min": [
        0.0015620000194758177,
        0.0008270000107586384
      ],
      "type": "VEC2"
    },
    {
      "bufferView": 0,
      "componentType": 5125,
      "count": 356583,
      "type": "SCALAR"
    },
    {
      "bufferView": 2,
      "byteOffset": 1572768,
      "componentType": 5126,
      "count": 65532,
      "max": [
        26.78280258178711,
        20.40632438659668,
        60.07908248901367
      ],
      "min": [
        -39.203521728515625,
        -50.782623291015625,
        -14.620919227600098
      ],
      "type": "VEC3"
    },
    {
      "bufferView": 2,
      "byteOffset": 2359152,
      "componentType": 5126,
      "count": 65532,
      "max": [
        1.0,
        1.0,
        1.0
      ],
      "min": [
        -1.0,
        -1.0,
        -0.9934766888618469
      ],
      "type": "VEC3"
    },
    {
      "bufferView": 1,
      "byteOffset": 524256,
      "componentType": 5126,
      "count": 65532,
      "max": [
        0.9559609889984131,
        0.9782040119171143
      ],
      "min": [
        0.010156000033020973,
        0.0013729999773204327
      ],
      "type": "VEC2"
    },
    {
      "bufferView": 0,
      "byteOffset": 1426332,
      "componentType": 5125,
      "count": 365787,
      "type": "SCALAR"
    },
    {
      "bufferView": 2,
      "byteOffset": 3145536,
      "componentType": 5126,
      "count": 65532,
      "max": [
        27.706310272216797,
        50.36607360839844,
        59.779083251953125
      ],
      "min": [
        -39.50352096557617,
        -33.43425750732422,
        -59.14558792114258
      ],
      "type": "VEC3"
    },
    {
      "bufferView": 2,
      "byteOffset": 3931920,
      "componentType": 5126,
      "count": 65532,
      "max": [
        1.0,
        0.9999970197677612,
        1.0
      ],
      "min": [
        -1.0,
        -0.9999629855155945,
        -0.9996678829193115
      ],
      "type": "VEC3"
    },
    {
      "bufferView": 1,
      "byteOffset": 1048512,
      "componentType": 5126,
      "count": 65532,
      "max": [
        0.9640470147132874,
        0.9992190003395081
      ],
      "min": [
        0.00937500037252903,
        0.061799000948667526
      ],
      "type": "VEC2"
    },
    {
      "bufferView": 0,
      "byteOffset": 2889480,
      "componentType": 5125,
      "count": 357249,
      "type": "SCALAR"
    },
    {
      "bufferView": 2,
      "byteOffset": 4718304,
      "componentType": 5126,
      "count": 65532,
      "max": [
        26.94209098815918,
        55.29012680053711,
        14.179081916809082
      ],
      "min": [
        -37.703521728515625,
        -30.845027923583984,
        -60.04243087768555
      ],
      "type": "VEC3"
    },
    {
      "bufferView": 2,
      "byteOffset": 5504688,
      "componentType": 5126,
      "count": 65532,
      "max": [
        0.9969586730003357,
        0.9996146559715271,
        0.9994348883628845
      ],
      "min": [
        -0.9965386986732483,
        -0.9571124911308289,
        -0.9999960064888
      ],
      "type": "VEC3"
    },
    {
      "bufferView": 1,
      "byteOffset": 1572768,
      "componentType": 5126,
      "count": 65532,
      "max": [
        0.8593540191650391,
        0.9992190003395081
      ],
      "min": [
        0.02028300054371357,
        0.4041779935359955
      ],
      "type": "VEC2"
    },
    {
      "bufferView": 0,
      "byteOffset": 4318476,
      "componentType": 5125,
      "count": 345606,
      "type": "SCALAR"
    },
    {
      "bufferView": 2,
      "byteOffset": 6291072,
      "componentType": 5126,
      "count": 65532,
      "max": [
        25.61882781982422,
        59.339332580566406,
        60.1036376953125
      ],
      "min": [
        -38.58070755004883,
        -9.734258651733398,
        -55.72092056274414
      ],
      "type": "VEC3"
    },
    {
      "bufferView": 2,
      "byteOffset": 7077456,
      "componentType": 5126,
      "count": 65532,
      "max": [
        0.9999374151229858,
        1.0,
        0.9989586472511292
      ],
      "min": [
        -1.0,
        -0.998530924320221,
        -0.999938428401947
      ],
      "type": "VEC3"
    },
    {
      "bufferView": 1,
      "byteOffset": 2097024,
      "componentType": 5126,
      "count": 65532,
      "max": [
        0.7713840007781982,
        0.9992190003395081
      ],
      "min": [
        0.0007810000097379088,
        0.6004589796066284
      ],
      "type": "VEC2"
    },
    {
      "bufferView": 0,
      "byteOffset": 5700900,
      "componentType": 5125,
      "count": 334527,
      "type": "SCALAR"
    },
    {
      "bufferView": 2,
      "byteOffset": 7863840,
      "componentType": 5126,
      "count": 65532,
      "max": [
        25.61253547668457,
        58.7701301574707,
        55.57908248901367
      ],
      "min": [
        -38.10431671142578,
        -50.80171203613281,
        -60.05552673339844
      ],
      "type": "VEC3"
    },
    {
      "bufferView": 2,
      "byteOffset": 8650224,
      "componentType": 5126,
      "count": 65532,
      "max": [
        1.0,
        1.0,
        1.0
      ],
      "min": [
        -1.0,
        -0.9999552965164185,
        -0.9998827576637268
      ],
      "type": "VEC3"
    },
    {
      "bufferView": 1,
      "byteOffset": 2621280,
      "componentType": 5126,
      "count": 65532,
      "max": [
        0.8571730256080627,
        0.9974129796028137
      ],
      "min": [
        0.025140000507235527,
        0.5002850294113159
      ],
      "type": "VEC2"
    },
    {
      "bufferView": 0,
      "byteOffset": 7039008,
      "componentType": 5125,
      "count": 327177,
      "type": "SCALAR"
    },
    {
      "bufferView": 2,
      "byteOffset": 9436608,
      "componentType": 5126,
      "count": 65532,
      "max": [
        17.496482849121094,
        26.86574363708496,
        58.062843322753906
      ],
      "min": [
        -41.779293060302734,
        -49.03425979614258,
        -47.02091979980469
      ],
      "type": "VEC3"
    },
    {
      "bufferView": 2,
      "byteOffset": 10222992,
      "componentType": 5126,
      "count": 65532,
      "max": [
        0.9260935187339783,
        0.9996760487556458,
        0.9982126355171204
      ],
      "min": [
        -1.0,
        -0.9989650249481201,
        -0.9995691776275635
      ],
      "type": "VEC3"
    },
    {
      "bufferView": 1,
      "byteOffset": 3145536,
      "componentType": 5126,
      "count": 65532,
      "max": [
        0.7320399880409241,
        0.6843940019607544
      ],
      "min": [
        0.23056399822235107,
        0.19549700617790222
      ],
      "type": "VEC2"
    },
    {
      "bufferView": 0,
      "byteOffset": 8347716,
      "componentType": 5125,
      "count": 373272,
      "type": "SCALAR"
    },
    {
      "bufferView": 2,
      "byteOffset": 11009376,
      "componentType": 5126,
      "count": 39788,
      "max": [
        26.496482849121094,
        20.86574363708496,
        18.11492156982422
      ],
      "min": [
        -29.724414825439453,
        -45.63681411743164,
        -59.24763488769531
      ],
      "type": "VEC3"
    },
    {
      "bufferView": 2,
      "byteOffset": 11486832,
      "componentType": 5126,
      "count": 39788,
      "max": [
        1.0,
        0.9980575442314148,
        0.9988533854484558
      ],
      "min": [
        -1.0,
        -0.993593156337738,
        -1.0
      ],
      "type": "VEC3"
    },
    {
      "bufferView": 1,
      "byteOffset": 3669792,
      "componentType": 5126,
      "count": 39788,
      "max": [
        0.7187340259552002,
        0.771818995475769
      ],
      "min": [
        0.009716999717056751,
        0.13116499781608582
      ],
      "type": "VEC2"
    },
    {
      "bufferView": 0,
      "byteOffset": 9840804,
      "componentType": 5125,
      "count": 206463,
      "type": "SCALAR"
    }
  ],
  "asset": {
    "extras": {
      "author": "buzzymartin (https://sketchfab.com/buzzymartin)",
      "license": "CC-BY-4.0 (http://creativecommons.org/licenses/by/4.0/)",
      "source": "https://sketchfab.com/3d-models/weathered-campbells-tomato-soup-can-76eade81725d407c88afda5a70bf6f82",
      "title": "Weathered Campbell's Tomato Soup Can"
    },
    "generator": "Sketchfab-15.27.0",
    "version": "2.0"
  },
  "bufferViews": [
    {
      "buffer": 0,
      "byteLength": 10666656,
      "name": "floatBufferViews",
      "target": 34963
    },
    {
      "buffer": 0,
      "byteLength": 3988096,
      "byteOffset": 10666656,
      "byteStride": 8,
      "name": "floatBufferViews",
      "target": 34962
    },
    {
      "buffer": 0,
      "byteLength": 11964288,
      "byteOffset": 14654752,
      "byteStride": 12,
      "name": "floatBufferViews",
      "target": 34962
    }
  ],
  "buffers": [
    {
      "byteLength": 26619040,
      "uri": "scene.bin"
    }
  ],
  "images": [
    {
      "uri": "textures/material_0_baseColor.png"
    }
  ],
  "materials": [
    {
      "doubleSided": true,
      "name": "material_0",
      "pbrMetallicRoughness": {
        "baseColorTexture": {
          "index": 0
        },
        "metallicFactor": 0.0,
        "roughnessFactor": 0.4376586748096509
      }
    }
  ],
  "meshes": [
    {
      "name": "Object_0",
      "primitives": [
        {
          "attributes": {
            "NORMAL": 1,
            "POSITION": 0,
            "TEXCOORD_0": 2
          },
          "indices": 3,
          "material": 0,
          "mode": 4
        }
      ]
    },
    {
      "name": "Object_1",
      "primitives": [
        {
          "attributes": {
            "NORMAL": 5,
            "POSITION": 4,
            "TEXCOORD_0": 6
          },
          "indices": 7,
          "material": 0,
          "mode": 4
        }
      ]
    },
    {
      "name": "Object_2",
      "primitives": [
        {
          "attributes": {
            "NORMAL": 9,
            "POSITION": 8,
            "TEXCOORD_0": 10
          },
          "indices": 11,
          "material": 0,
          "mode": 4
        }
      ]
    },
    {
      "name": "Object_3",
      "primitives": [
        {
          "attributes": {
            "NORMAL": 13,
            "POSITION": 12,
            "TEXCOORD_0": 14
          },
          "indices": 15,
          "material": 0,
          "mode": 4
        }
      ]
    },
    {
      "name": "Object_4",
      "primitives": [
        {
          "attributes": {
            "NORMAL": 17,
            "POSITION": 16,
            "TEXCOORD_0": 18
          },
          "indices": 19,
          "material": 0,
          "mode": 4
        }
      ]
    },
    {
      "name": "Object_5",
      "primitives": [
        {
          "attributes": {
            "NORMAL": 21,
            "POSITION": 20,
            "TEXCOORD_0": 22
          },
          "indices": 23,
          "material": 0,
          "mode": 4
        }
      ]
    },
    {
      "name": "Object_6",
      "primitives": [
        {
          "attributes": {
            "NORMAL": 25,
            "POSITION": 24,
            "TEXCOORD_0": 26
          },
          "indices": 27,
          "material": 0,
          "mode": 4
        }
      ]
    },
    {
      "name": "Object_7",
      "primitives": [
        {
          "attributes": {
            "NORMAL": 29,
            "POSITION": 28,
            "TEXCOORD_0": 30
          },
          "indices": 31,
          "material": 0,
          "mode": 4
        }
      ]
    }
  ],
  "nodes": [
    {
      "children": [
        1
      ],
      "matrix": [
        1.0,
        0.0,
        0.0,
        0.0,
        0.0,
        2.220446049250313e-16,
        -1.0,
        0.0,
        0.0,
        1.0,
        2.220446049250313e-16,
        0.0,
        0.0,
        0.0,
        0.0,
        1.0
      ],
      "name": "Sketchfab_model"
    },
    {
      "children": [
        2,
        3,
        4,
        5,
        6,
        7,
        8,
        9
      ],
      "name": "Campbells Soup.obj.cleaner.materialmerger.gles"
    },
    {
      "mesh": 0,
      "name": "Object_2"
    },
    {
      "mesh": 1,
      "name": "Object_3"
    },
    {
      "mesh": 2,
      "name": "Object_4"
    },
    {
      "mesh": 3,
      "name": "Object_5"
    },
    {
      "mesh": 4,
      "name": "Object_6"
    },
    {
      "mesh": 5,
      "name": "Object_7"
    },
    {
      "mesh": 6,
      "name": "Object_8"
    },
    {
      "mesh": 7,
      "name": "Object_9"
    }
  ],
  "samplers": [
    {
      "magFilter": 9729,
      "minFilter": 9987,
      "wrapS": 10497,
      "wrapT": 10497
    }
  ],
  "scene": 0,
  "scenes": [
    {
      "name": "Sketchfab_Scene",
      "nodes": [
        0
      ]
    }
  ],
  "textures": [
    {
      "sampler": 0,
      "source": 0
    }
  ]
}
